<svg xmlns="http://www.w3.org/2000/svg" xmlns:xlink="http://www.w3.org/1999/xlink" xml:space="preserve" style="shape-rendering:geometricPrecision;text-rendering:geometricPrecision;image-rendering:optimizeQuality;fill-rule:evenodd;clip-rule:evenodd" viewBox="125 24 150 152"><defs><linearGradient id="a" x1="152.696" x2="241.714" y1="146.087" y2="63.663" gradientUnits="userSpaceOnUse"><stop offset="0" style="stop-opacity:1;stop-color:#643e8e"/><stop offset=".439" style="stop-opacity:1;stop-color:#c72e58"/><stop offset="1" style="stop-opacity:1;stop-color:#e68d27"/></linearGradient><linearGradient xlink:href="#a" id="bi" x1="152.696" x2="241.714" y1="146.087" y2="63.663" gradientUnits="userSpaceOnUse"/><linearGradient xlink:href="#a" id="aw" x1="152.696" x2="241.714" y1="146.087" y2="63.662" gradientUnits="userSpaceOnUse"/><linearGradient xlink:href="#a" id="ak" x1="152.696" x2="241.714" y1="146.087" y2="63.663" gradientUnits="userSpaceOnUse"/><linearGradient xlink:href="#a" id="U" x1="152.696" x2="241.714" y1="146.087" y2="63.663" gradientUnits="userSpaceOnUse"/><linearGradient xlink:href="#a" id="I" x1="152.696" x2="241.714" y1="146.087" y2="63.663" gradientUnits="userSpaceOnUse"/><linearGradient xlink:href="#a" id="R" x1="152.696" x2="241.714" y1="146.087" y2="63.663" gradientUnits="userSpaceOnUse"/><linearGradient xlink:href="#a" id="al" x1="152.695" x2="241.714" y1="146.087" y2="63.664" gradientUnits="userSpaceOnUse"/><linearGradient xlink:href="#a" id="B" x1="152.695" x2="241.713" y1="146.087" y2="63.663" gradientUnits="userSpaceOnUse"/><linearGradient xlink:href="#a" id="T" x1="152.695" x2="241.713" y1="146.086" y2="63.663" gradientUnits="userSpaceOnUse"/><linearGradient xlink:href="#a" id="bm" x1="152.697" x2="241.715" y1="146.086" y2="63.664" gradientUnits="userSpaceOnUse"/><linearGradient xlink:href="#a" id="bG" x1="152.696" x2="241.714" y1="146.087" y2="63.663" gradientUnits="userSpaceOnUse"/><linearGradient xlink:href="#a" id="k" x1="152.696" x2="241.713" y1="146.088" y2="63.662" gradientUnits="userSpaceOnUse"/><linearGradient xlink:href="#a" id="aa" x1="152.696" x2="241.714" y1="146.087" y2="63.663" gradientUnits="userSpaceOnUse"/><linearGradient xlink:href="#a" id="bE" x1="152.696" x2="241.714" y1="146.087" y2="63.663" gradientUnits="userSpaceOnUse"/><linearGradient xlink:href="#a" id="W" x1="152.696" x2="241.714" y1="146.087" y2="63.663" gradientUnits="userSpaceOnUse"/><linearGradient xlink:href="#a" id="u" x1="152.696" x2="241.714" y1="146.087" y2="63.663" gradientUnits="userSpaceOnUse"/><linearGradient xlink:href="#a" id="be" x1="152.696" x2="241.714" y1="146.086" y2="63.663" gradientUnits="userSpaceOnUse"/><linearGradient xlink:href="#a" id="i" x1="152.695" x2="241.715" y1="146.088" y2="63.663" gradientUnits="userSpaceOnUse"/><linearGradient xlink:href="#a" id="y" x1="152.696" x2="241.714" y1="146.087" y2="63.663" gradientUnits="userSpaceOnUse"/><linearGradient xlink:href="#a" id="aI" x1="152.696" x2="241.714" y1="146.087" y2="63.663" gradientUnits="userSpaceOnUse"/><linearGradient xlink:href="#a" id="Z" x1="152.696" x2="241.714" y1="146.087" y2="63.663" gradientUnits="userSpaceOnUse"/><linearGradient xlink:href="#a" id="ay" x1="152.696" x2="241.714" y1="146.087" y2="63.663" gradientUnits="userSpaceOnUse"/><linearGradient xlink:href="#a" id="bh" x1="152.696" x2="241.714" y1="146.089" y2="63.661" gradientUnits="userSpaceOnUse"/><linearGradient xlink:href="#a" id="aT" x1="152.696" x2="241.714" y1="146.087" y2="63.663" gradientUnits="userSpaceOnUse"/><linearGradient xlink:href="#a" id="F" x1="152.696" x2="241.714" y1="146.087" y2="63.663" gradientUnits="userSpaceOnUse"/><linearGradient xlink:href="#a" id="aA" x1="152.696" x2="241.714" y1="146.087" y2="63.663" gradientUnits="userSpaceOnUse"/><linearGradient xlink:href="#a" id="aX" x1="152.696" x2="241.713" y1="146.087" y2="63.663" gradientUnits="userSpaceOnUse"/><linearGradient xlink:href="#a" id="m" x1="152.696" x2="241.713" y1="146.087" y2="63.663" gradientUnits="userSpaceOnUse"/><linearGradient xlink:href="#a" id="bg" x1="152.696" x2="241.714" y1="146.087" y2="63.663" gradientUnits="userSpaceOnUse"/><linearGradient xlink:href="#a" id="x" x1="152.696" x2="241.714" y1="146.087" y2="63.663" gradientUnits="userSpaceOnUse"/><linearGradient xlink:href="#a" id="aO" x1="152.696" x2="241.713" y1="146.087" y2="63.664" gradientUnits="userSpaceOnUse"/><linearGradient xlink:href="#a" id="bb" x1="152.696" x2="241.714" y1="146.087" y2="63.663" gradientUnits="userSpaceOnUse"/><linearGradient xlink:href="#a" id="aV" x1="152.697" x2="241.712" y1="146.088" y2="63.664" gradientUnits="userSpaceOnUse"/><linearGradient xlink:href="#a" id="aU" x1="152.696" x2="241.713" y1="146.087" y2="63.663" gradientUnits="userSpaceOnUse"/><linearGradient xlink:href="#a" id="Q" x1="152.695" x2="241.714" y1="146.087" y2="63.663" gradientUnits="userSpaceOnUse"/><linearGradient xlink:href="#a" id="ad" x1="152.696" x2="241.714" y1="146.087" y2="63.663" gradientUnits="userSpaceOnUse"/><linearGradient xlink:href="#a" id="A" x1="152.695" x2="241.714" y1="146.087" y2="63.663" gradientUnits="userSpaceOnUse"/><linearGradient xlink:href="#a" id="j" x1="152.695" x2="241.714" y1="146.087" y2="63.663" gradientUnits="userSpaceOnUse"/><linearGradient xlink:href="#a" id="bp" x1="152.696" x2="241.714" y1="146.087" y2="63.663" gradientUnits="userSpaceOnUse"/><linearGradient xlink:href="#a" id="bk" x1="152.695" x2="241.714" y1="146.087" y2="63.663" gradientUnits="userSpaceOnUse"/><linearGradient xlink:href="#a" id="aD" x1="152.696" x2="241.714" y1="146.087" y2="63.663" gradientUnits="userSpaceOnUse"/><linearGradient xlink:href="#a" id="C" x1="152.696" x2="241.714" y1="146.087" y2="63.663" gradientUnits="userSpaceOnUse"/><linearGradient xlink:href="#a" id="bL" x1="152.695" x2="241.714" y1="146.087" y2="63.663" gradientUnits="userSpaceOnUse"/><linearGradient xlink:href="#a" id="aM" x1="152.695" x2="241.714" y1="146.087" y2="63.663" gradientUnits="userSpaceOnUse"/><linearGradient xlink:href="#a" id="P" x1="152.696" x2="241.714" y1="146.087" y2="63.663" gradientUnits="userSpaceOnUse"/><linearGradient xlink:href="#a" id="aj" x1="152.696" x2="241.714" y1="146.087" y2="63.663" gradientUnits="userSpaceOnUse"/><linearGradient xlink:href="#a" id="ba" x1="152.696" x2="241.714" y1="146.087" y2="63.663" gradientUnits="userSpaceOnUse"/><linearGradient xlink:href="#a" id="V" x1="152.697" x2="241.715" y1="146.088" y2="63.661" gradientUnits="userSpaceOnUse"/><linearGradient xlink:href="#a" id="bv" x1="152.696" x2="241.714" y1="146.087" y2="63.663" gradientUnits="userSpaceOnUse"/><linearGradient xlink:href="#a" id="E" x1="152.696" x2="241.714" y1="146.087" y2="63.663" gradientUnits="userSpaceOnUse"/><linearGradient xlink:href="#a" id="bD" x1="152.696" x2="241.714" y1="146.087" y2="63.663" gradientUnits="userSpaceOnUse"/><linearGradient xlink:href="#a" id="ag" x1="152.696" x2="241.714" y1="146.088" y2="63.663" gradientUnits="userSpaceOnUse"/><linearGradient xlink:href="#a" id="bI" x1="152.696" x2="241.714" y1="146.087" y2="63.663" gradientUnits="userSpaceOnUse"/><linearGradient xlink:href="#a" id="bA" x1="152.695" x2="241.713" y1="146.087" y2="63.663" gradientUnits="userSpaceOnUse"/><linearGradient xlink:href="#a" id="aP" x1="152.695" x2="241.714" y1="146.087" y2="63.663" gradientUnits="userSpaceOnUse"/><linearGradient xlink:href="#a" id="aS" x1="152.695" x2="241.713" y1="146.086" y2="63.664" gradientUnits="userSpaceOnUse"/><linearGradient xlink:href="#a" id="aH" x1="152.696" x2="241.714" y1="146.087" y2="63.664" gradientUnits="userSpaceOnUse"/><linearGradient xlink:href="#a" id="n" x1="152.695" x2="241.714" y1="146.087" y2="63.663" gradientUnits="userSpaceOnUse"/><linearGradient xlink:href="#a" id="aN" x1="152.696" x2="241.714" y1="146.087" y2="63.663" gradientUnits="userSpaceOnUse"/><linearGradient xlink:href="#a" id="s" x1="152.696" x2="241.714" y1="146.087" y2="63.663" gradientUnits="userSpaceOnUse"/><linearGradient xlink:href="#a" id="ai" x1="152.696" x2="241.714" y1="146.087" y2="63.663" gradientUnits="userSpaceOnUse"/><linearGradient xlink:href="#a" id="q" x1="152.696" x2="241.714" y1="146.087" y2="63.663" gradientUnits="userSpaceOnUse"/><linearGradient xlink:href="#a" id="aC" x1="152.696" x2="241.713" y1="146.087" y2="63.662" gradientUnits="userSpaceOnUse"/><linearGradient xlink:href="#a" id="N" x1="152.695" x2="241.713" y1="146.087" y2="63.663" gradientUnits="userSpaceOnUse"/><linearGradient xlink:href="#a" id="w" x1="152.696" x2="241.714" y1="146.087" y2="63.663" gradientUnits="userSpaceOnUse"/><linearGradient xlink:href="#a" id="f" x1="152.695" x2="241.715" y1="146.088" y2="63.664" gradientUnits="userSpaceOnUse"/><linearGradient xlink:href="#a" id="av" x1="152.695" x2="241.714" y1="146.087" y2="63.663" gradientUnits="userSpaceOnUse"/><linearGradient xlink:href="#a" id="o" x1="152.696" x2="241.714" y1="146.087" y2="63.663" gradientUnits="userSpaceOnUse"/><linearGradient xlink:href="#a" id="bw" x1="152.696" x2="241.714" y1="146.087" y2="63.663" gradientUnits="userSpaceOnUse"/><linearGradient xlink:href="#a" id="am" x1="152.696" x2="241.714" y1="146.087" y2="63.663" gradientUnits="userSpaceOnUse"/><linearGradient xlink:href="#a" id="ar" x1="152.695" x2="241.714" y1="146.088" y2="63.663" gradientUnits="userSpaceOnUse"/><linearGradient xlink:href="#a" id="af" x1="152.696" x2="241.714" y1="146.087" y2="63.663" gradientUnits="userSpaceOnUse"/><linearGradient xlink:href="#a" id="bO" x1="152.696" x2="241.714" y1="146.087" y2="63.662" gradientUnits="userSpaceOnUse"/><linearGradient xlink:href="#a" id="v" x1="152.696" x2="241.714" y1="146.087" y2="63.663" gradientUnits="userSpaceOnUse"/><linearGradient xlink:href="#a" id="g" x1="152.696" x2="241.714" y1="146.087" y2="63.663" gradientUnits="userSpaceOnUse"/><linearGradient xlink:href="#a" id="ap" x1="152.696" x2="241.714" y1="146.087" y2="63.663" gradientUnits="userSpaceOnUse"/><linearGradient xlink:href="#a" id="bC" x1="152.696" x2="241.714" y1="146.087" y2="63.663" gradientUnits="userSpaceOnUse"/><linearGradient xlink:href="#a" id="p" x1="152.696" x2="241.714" y1="146.087" y2="63.663" gradientUnits="userSpaceOnUse"/><linearGradient xlink:href="#a" id="z" x1="152.696" x2="241.714" y1="146.087" y2="63.663" gradientUnits="userSpaceOnUse"/><linearGradient xlink:href="#a" id="bt" x1="152.696" x2="241.714" y1="146.087" y2="63.663" gradientUnits="userSpaceOnUse"/><linearGradient xlink:href="#a" id="bz" x1="152.696" x2="241.714" y1="146.087" y2="63.663" gradientUnits="userSpaceOnUse"/><linearGradient xlink:href="#a" id="bP" x1="152.696" x2="241.713" y1="146.087" y2="63.664" gradientUnits="userSpaceOnUse"/><linearGradient xlink:href="#a" id="X" x1="152.696" x2="241.714" y1="146.087" y2="63.663" gradientUnits="userSpaceOnUse"/><linearGradient xlink:href="#a" id="aR" x1="152.695" x2="241.714" y1="146.087" y2="63.663" gradientUnits="userSpaceOnUse"/><linearGradient xlink:href="#a" id="at" x1="152.695" x2="241.714" y1="146.088" y2="63.663" gradientUnits="userSpaceOnUse"/><linearGradient xlink:href="#a" id="aG" x1="152.696" x2="241.713" y1="146.087" y2="63.662" gradientUnits="userSpaceOnUse"/><linearGradient xlink:href="#a" id="l" x1="152.696" x2="241.714" y1="146.087" y2="63.663" gradientUnits="userSpaceOnUse"/><linearGradient xlink:href="#a" id="aW" x1="152.696" x2="241.714" y1="146.087" y2="63.663" gradientUnits="userSpaceOnUse"/><linearGradient xlink:href="#a" id="bH" x1="152.695" x2="241.714" y1="146.087" y2="63.663" gradientUnits="userSpaceOnUse"/><linearGradient xlink:href="#a" id="bJ" x1="152.696" x2="241.714" y1="146.087" y2="63.663" gradientUnits="userSpaceOnUse"/><linearGradient xlink:href="#a" id="au" x1="152.696" x2="241.714" y1="146.087" y2="63.663" gradientUnits="userSpaceOnUse"/><linearGradient xlink:href="#a" id="aY" x1="152.696" x2="241.714" y1="146.087" y2="63.663" gradientUnits="userSpaceOnUse"/><linearGradient xlink:href="#a" id="H" x1="152.696" x2="241.714" y1="146.087" y2="63.663" gradientUnits="userSpaceOnUse"/><linearGradient xlink:href="#a" id="bK" x1="152.696" x2="241.714" y1="146.087" y2="63.663" gradientUnits="userSpaceOnUse"/><linearGradient xlink:href="#a" id="as" x1="152.696" x2="241.714" y1="146.087" y2="63.663" gradientUnits="userSpaceOnUse"/><linearGradient xlink:href="#a" id="bN" x1="152.696" x2="241.714" y1="146.087" y2="63.663" gradientUnits="userSpaceOnUse"/><linearGradient xlink:href="#a" id="bc" x1="152.696" x2="241.714" y1="146.087" y2="63.663" gradientUnits="userSpaceOnUse"/><linearGradient xlink:href="#a" id="D" x1="152.694" x2="241.712" y1="146.086" y2="63.664" gradientUnits="userSpaceOnUse"/><linearGradient xlink:href="#a" id="aL" x1="152.696" x2="241.714" y1="146.087" y2="63.663" gradientUnits="userSpaceOnUse"/><linearGradient xlink:href="#a" id="b" x1="152.696" x2="241.714" y1="146.087" y2="63.663" gradientUnits="userSpaceOnUse"/><linearGradient xlink:href="#a" id="bs" x1="152.695" x2="241.713" y1="146.087" y2="63.663" gradientUnits="userSpaceOnUse"/><linearGradient xlink:href="#a" id="bu" x1="152.697" x2="241.714" y1="146.087" y2="63.663" gradientUnits="userSpaceOnUse"/><linearGradient xlink:href="#a" id="aQ" x1="152.696" x2="241.714" y1="146.087" y2="63.663" gradientUnits="userSpaceOnUse"/><linearGradient xlink:href="#a" id="bx" x1="152.696" x2="241.714" y1="146.087" y2="63.663" gradientUnits="userSpaceOnUse"/><linearGradient xlink:href="#a" id="O" x1="152.696" x2="241.714" y1="146.087" y2="63.663" gradientUnits="userSpaceOnUse"/><linearGradient xlink:href="#a" id="bM" x1="152.696" x2="241.714" y1="146.087" y2="63.663" gradientUnits="userSpaceOnUse"/><linearGradient xlink:href="#a" id="ab" x1="152.696" x2="241.714" y1="146.087" y2="63.662" gradientUnits="userSpaceOnUse"/><linearGradient xlink:href="#a" id="bl" x1="152.695" x2="241.713" y1="146.087" y2="63.662" gradientUnits="userSpaceOnUse"/><linearGradient xlink:href="#a" id="K" x1="152.696" x2="241.714" y1="146.087" y2="63.663" gradientUnits="userSpaceOnUse"/><linearGradient xlink:href="#a" id="bF" x1="152.696" x2="241.714" y1="146.087" y2="63.663" gradientUnits="userSpaceOnUse"/><linearGradient xlink:href="#a" id="aB" x1="152.696" x2="241.714" y1="146.087" y2="63.663" gradientUnits="userSpaceOnUse"/><linearGradient xlink:href="#a" id="bn" x1="152.694" x2="241.712" y1="146.088" y2="63.662" gradientUnits="userSpaceOnUse"/><linearGradient xlink:href="#a" id="ax" x1="152.696" x2="241.714" y1="146.087" y2="63.663" gradientUnits="userSpaceOnUse"/><linearGradient xlink:href="#a" id="d" x1="152.695" x2="241.714" y1="146.087" y2="63.663" gradientUnits="userSpaceOnUse"/><linearGradient xlink:href="#a" id="ac" x1="152.695" x2="241.712" y1="146.085" y2="63.664" gradientUnits="userSpaceOnUse"/><linearGradient xlink:href="#a" id="bd" x1="152.696" x2="241.714" y1="146.087" y2="63.663" gradientUnits="userSpaceOnUse"/><linearGradient xlink:href="#a" id="aK" x1="152.695" x2="241.714" y1="146.086" y2="63.663" gradientUnits="userSpaceOnUse"/><linearGradient xlink:href="#a" id="aE" x1="152.696" x2="241.714" y1="146.087" y2="63.664" gradientUnits="userSpaceOnUse"/><linearGradient xlink:href="#a" id="az" x1="152.696" x2="241.714" y1="146.087" y2="63.663" gradientUnits="userSpaceOnUse"/><linearGradient xlink:href="#a" id="aJ" x1="152.696" x2="241.714" y1="146.087" y2="63.663" gradientUnits="userSpaceOnUse"/><linearGradient xlink:href="#a" id="an" x1="152.696" x2="241.714" y1="146.087" y2="63.663" gradientUnits="userSpaceOnUse"/><linearGradient xlink:href="#a" id="aZ" x1="152.697" x2="241.716" y1="146.088" y2="63.661" gradientUnits="userSpaceOnUse"/><linearGradient xlink:href="#a" id="J" x1="152.696" x2="241.713" y1="146.087" y2="63.663" gradientUnits="userSpaceOnUse"/><linearGradient xlink:href="#a" id="ae" x1="152.696" x2="241.714" y1="146.087" y2="63.663" gradientUnits="userSpaceOnUse"/><linearGradient xlink:href="#a" id="G" x1="152.696" x2="241.714" y1="146.087" y2="63.663" gradientUnits="userSpaceOnUse"/><linearGradient xlink:href="#a" id="bB" x1="152.696" x2="241.714" y1="146.087" y2="63.663" gradientUnits="userSpaceOnUse"/><linearGradient xlink:href="#a" id="c" x1="152.696" x2="241.714" y1="146.087" y2="63.663" gradientUnits="userSpaceOnUse"/><linearGradient xlink:href="#a" id="bq" x1="152.695" x2="241.713" y1="146.087" y2="63.663" gradientUnits="userSpaceOnUse"/><linearGradient xlink:href="#a" id="by" x1="152.696" x2="241.714" y1="146.087" y2="63.663" gradientUnits="userSpaceOnUse"/><linearGradient xlink:href="#a" id="br" x1="152.696" x2="241.715" y1="146.087" y2="63.663" gradientUnits="userSpaceOnUse"/><linearGradient xlink:href="#a" id="Y" x1="152.696" x2="241.714" y1="146.087" y2="63.663" gradientUnits="userSpaceOnUse"/><linearGradient xlink:href="#a" id="h" x1="152.696" x2="241.714" y1="146.087" y2="63.663" gradientUnits="userSpaceOnUse"/><linearGradient xlink:href="#a" id="bf" x1="152.696" x2="241.714" y1="146.087" y2="63.663" gradientUnits="userSpaceOnUse"/><linearGradient xlink:href="#a" id="aq" x1="152.696" x2="241.714" y1="146.087" y2="63.663" gradientUnits="userSpaceOnUse"/><linearGradient xlink:href="#a" id="ah" x1="152.696" x2="241.714" y1="146.087" y2="63.663" gradientUnits="userSpaceOnUse"/><linearGradient xlink:href="#a" id="M" x1="152.696" x2="241.714" y1="146.087" y2="63.663" gradientUnits="userSpaceOnUse"/><linearGradient xlink:href="#a" id="bo" x1="152.697" x2="241.715" y1="146.087" y2="63.664" gradientUnits="userSpaceOnUse"/><linearGradient xlink:href="#a" id="bj" x1="152.696" x2="241.714" y1="146.087" y2="63.663" gradientUnits="userSpaceOnUse"/><linearGradient xlink:href="#a" id="S" x1="152.695" x2="241.714" y1="146.087" y2="63.663" gradientUnits="userSpaceOnUse"/><linearGradient xlink:href="#a" id="r" x1="152.695" x2="241.714" y1="146.088" y2="63.662" gradientUnits="userSpaceOnUse"/><linearGradient xlink:href="#a" id="e" x1="152.696" x2="241.714" y1="146.087" y2="63.663" gradientUnits="userSpaceOnUse"/><linearGradient xlink:href="#a" id="aF" x1="152.696" x2="241.713" y1="146.087" y2="63.662" gradientUnits="userSpaceOnUse"/><linearGradient xlink:href="#a" id="L" x1="152.696" x2="241.714" y1="146.087" y2="63.663" gradientUnits="userSpaceOnUse"/><linearGradient xlink:href="#a" id="t" x1="152.696" x2="241.714" y1="146.087" y2="63.663" gradientUnits="userSpaceOnUse"/><linearGradient xlink:href="#a" id="ao" x1="152.696" x2="241.714" y1="146.087" y2="63.663" gradientUnits="userSpaceOnUse"/></defs><path d="m220.56 76.247-2.19 6.526 16.532 3.956z" style="fill:url(#b)"/><path d="m224.835 78.693 9.891 7.33-2.19-4.946z" style="fill:url(#c)"/><path d="m220.675 75.902.759-2.508 5.847 5.052z" style="fill:url(#d)"/><path d="m221.118 73.183-3.073 9.573-4.826-5.948z" style="fill:url(#e)"/><path d="m212.958 76.481-2.886-3.682 10.589.15z" style="fill:url(#f)"/><path d="m209.57 72.854-5.228 2.791 8.275 1.139z" style="fill:url(#g)"/><path d="m203.936 75.946 7.577.989-15.207 5.493z" style="fill:url(#h)"/><path d="m204.995 79.655-8.654 3.126 4.292-.812z" style="fill:url(#i)"/><path d="m202.452 76.723-6.482 5.564-3.585-2.914z" style="fill:url(#j)"/><path d="m192.226 79.09.494-3.709 1.925 3.056z" style="fill:url(#k)"/><path d="m208.969 72.811-5.051 2.702-8.125-3.302z" style="fill:url(#l)"/><path d="m203.141 72.069-8.16-.423-1.148-6.165z" style="fill:url(#m)"/><path d="m197.029 67.248-3.073-2.155 4.928-3.444z" style="fill:url(#n)"/><path d="m212.961 77.103 4.645 5.599-21.671 10.88z" style="fill:url(#o)"/><path d="m212.254 85.881-16.108 8.196 11.269 22.608z" style="fill:url(#p)"/><path d="M210.276 78.958 195.97 93.017l4.415-7.912z" style="fill:url(#q)"/><path d="m210.912 98.051-3.002 18.016 3.391-8.549z" style="fill:url(#r)"/><path d="m202.187 107.094 4.875 9.838-14.642 12.716z" style="fill:url(#s)"/><path d="m200.474 110.079-17.945-35.608 8.866 56.273z" style="fill:url(#t)"/><path d="m181.727 74.118 9.214 57.299-33.544-8.139z" style="fill:url(#u)"/><path d="m156.44 123.175-14.233-10.259-6.447 7.507z" style="fill:url(#v)"/><path d="m125.163 108.471 10.052 11.775 3.68-4.128z" style="fill:url(#w)"/><path d="m139.211 115.661-7.771-4.364 10.185 1.604z" style="fill:url(#x)"/><path d="m125.788 110.119 8.537 9.715-5.24-4.298z" style="fill:url(#y)"/><path d="m156.94 122.903-14.425-10.51 38.622-39.034z" style="fill:url(#z)"/><path d="m142.015 112.173-.633-10.009-13.57.971z" style="fill:url(#A)"/><path d="m125.133 92.185 8.419 10.126-6.094.456z" style="fill:url(#B)"/><path d="m134.096 102.252 6.167-.353-13.526-8.463z" style="fill:url(#C)"/><path d="m125 93.76 1.855 8.11-1.487-3.562z" style="fill:url(#D)"/><path d="m142.426 111.762-.854-19.62 12.85 7.58z" style="fill:url(#E)"/><path d="m141.344 101.805-.522-10.045-11.157-.588z" style="fill:url(#F)"/><path d="m140.247 91.201-10.891-.544-2.017-5.947z" style="fill:url(#G)"/><path d="m127.251 84.107.191-5.181 10.715 10.597z" style="fill:url(#H)"/><path d="m127.559 78.455 1.369-2.649 3.915 7.786z" style="fill:url(#I)"/><path d="m143.897 93.058 5.445-8.39 5.358 14.571z" style="fill:url(#J)"/><path d="m143.632 92.587 5.21-8.213-13.718-2.385z" style="fill:url(#K)"/><path d="M147.517 83.638 134.8 81.43l-2.826-9.066z" style="fill:url(#L)"/><path d="m132.004 71.746.618-4.622 12.349 14.174z" style="fill:url(#M)"/><path d="m132.749 66.634 2.605-4.415 6.682 15.145z" style="fill:url(#N)"/><path d="m149.777 84.216 31.358-11.634-25.948 26.361z" style="fill:url(#O)"/><path d="m149.623 83.85-7.257-11.068 11.157 1.796z" style="fill:url(#P)"/><path d="m152.949 73.872-10.73-1.634-2.031-8.095z" style="fill:url(#Q)"/><path d="m140.209 63.522.538-6.332 11.495 15.638z" style="fill:url(#R)"/><path d="m150.549 69.841-9.663-13.107 2.067-4.879z" style="fill:url(#S)"/><path d="m143.218 51.502 2.105-2.811 2.87 14.571z" style="fill:url(#T)"/><path d="m145.639 48.397 4.011-3.739-3.43 6.491z" style="fill:url(#U)"/><path d="m146.36 51.878 2.134-4.151-1.192 9.376z" style="fill:url(#V)"/><path d="m150.236 83.627 3.738-8.986 26.84-2.362z" style="fill:url(#W)"/><path d="m153.511 74.237 15.381-1.31-18.899-14.66z" style="fill:url(#X)"/><path d="m159.884 65.391-9.832-7.594 3.032-11.392z" style="fill:url(#Y)"/><path d="m153.356 45.912 4.291-6.013 2.399 24.72z" style="fill:url(#Z)"/><path d="m158.066 39.474 6.933-5.277-6.211 12.135z" style="fill:url(#aa)"/><path d="m158.89 47.076 3.224-6.285-1.693 6.918z" style="fill:url(#ab)"/><path d="m158.816 47.503 1.597.626-.567 10.192z" style="fill:url(#ac)"/><path d="m169.847 72.841-9.427-7.013 1.178-13.776z" style="fill:url(#ad)"/><path d="m169.884 71.672-.78-13.836-7.403-6.947z" style="fill:url(#ae)"/><path d="m169.104 57.145-7.286-6.786 3.076-8.86z" style="fill:url(#af)"/><path d="m169.148 56.019-3.915-15.042 3.915-5.578z" style="fill:url(#ag)"/><path d="m169.56 52.966.051-18.045 5.196-4.187z" style="fill:url(#ah)"/><path d="m175.292 30.454-4.298 17.884 4.313-8.596z" style="fill:url(#ai)"/><path d="m175.689 39.124-.011-8.901 5.317-2.403z" style="fill:url(#aj)"/><path d="m181.29 27.739 6.042-.934-5.991 4.908z" style="fill:url(#ak)"/><path d="m180.951 28.637.044 3.511-3.82 4.791z" style="fill:url(#al)"/><path d="m170.426 72.794-.934-18.272 12.04 17.279z" style="fill:url(#am)"/><path d="M181.723 71.36 169.55 54.022l4.685-10.178z" style="fill:url(#an)"/><path d="m177.944 55.523 6.564-11.238-9.891-.78z" style="fill:url(#ao)"/><path d="m174.768 43.112 10.568-10.745-.567 11.598z" style="fill:url(#ap)"/><path d="m185.203 43.465.568-11.407 8.318-5.181z" style="fill:url(#aq)"/><path d="m186.818 41.42 7.889-14.837-2.37 9.435z" style="fill:url(#ar)"/><path d="m192.911 35.547 2.281-9.184 5.461-1.767z" style="fill:url(#a)"/><path d="m201.279 24.464-7.191 10.207 8.949-5.033z" style="fill:url(#as)"/><path d="m203.42 29.505-1.73-5.126 5.034-.257z" style="fill:url(#at)"/><path d="m207.18 24.144-3.098 5.093 10.089-2.37z" style="fill:url(#au)"/><path d="m178.037 56.143 4.386-7.213-.088 22.844z" style="fill:url(#av)"/><path d="m182.806 69.95.147-21.696 8.302-7.859z" style="fill:url(#aw)"/><path d="m185.75 61.031 6.52-21.578 10.126-6.152z" style="fill:url(#ax)"/><path d="m190.253 54.467 12.886-21.489 7.433-2.465z" style="fill:url(#ay)"/><path d="m195.47 49.074 15.904-18.692 7.278-.464z" style="fill:url(#az)"/><path d="m202.917 43.622 16.434-13.63 7.322 1.112z" style="fill:url(#aA)"/><path d="m209.599 40.598 17.78-9.331 1.406 6.712z" style="fill:url(#aB)"/><path d="m227.799 31.37 1.324 6.667 8.434 2.017z" style="fill:url(#aC)"/><path d="m238.926 40.665-10.378-9.089 8.751 3.378z" style="fill:url(#aD)"/><path d="m237.688 35.102 1.619 5.784 2.738 1.722z" style="fill:url(#aE)"/><path d="m238.256 35.427 4.611 7.86 3.138-2.899z" style="fill:url(#aF)"/><path d="m243.135 43.519 3.205-2.881-1.104 4.894z" style="fill:url(#aG)"/><path d="m245.596 45.738 1.052-4.835 6.885 7.146z" style="fill:url(#aH)"/><path d="m174.281 127.847-10.597 15.601 27.009-11.716z" style="fill:url(#aI)"/><path d="m163.397 143.949 2.546 19.472 12.099-25.728z" style="fill:url(#aJ)"/><path d="m163.117 144.758 2.282 18.119-3.091-7.993z" style="fill:url(#aK)"/><path d="m166.134 163.804 4.615-9.781-.913 13.181z" style="fill:url(#aL)"/><path d="m170.145 167.454.515-7.286 2.988 9.258z" style="fill:url(#aM)"/><path d="m173.898 127.758-16.687-4.206 2.918 18.497z" style="fill:url(#aN)"/><path d="m172.522 129.7-4.003 4.136 2.163-1.332z" style="fill:url(#aO)"/><path d="m156.868 123.474 2.981 19.105-12.238 6.748z" style="fill:url(#aP)"/><path d="m147.611 149.666 11.565-6.267-9.313 12.555z" style="fill:url(#aQ)"/><path d="m150.069 156.351 6.02-8.169-4.058 10.362z" style="fill:url(#aR)"/><path d="m154.709 152.627-2.428 6.3 2.473 1.781z" style="fill:url(#aS)"/><path d="m153.208 132.639-11.363 2.62 14.653-11.687z" style="fill:url(#aT)"/><path d="m141.176 135.288 14.306-11.355-23.851 7.734z" style="fill:url(#aU)"/><path d="m131.391 131.402-.533-1.17 5.24-.361z" style="fill:url(#aV)"/><path d="m131.899 132.116 8.419 3.252-4.762-.875z" style="fill:url(#aW)"/><path d="m141.565 128.09 9.287-2.973-4.342.574z" style="fill:url(#aX)"/><path d="m153.119 132.976-10.068 4.416 2.061 12.246z" style="fill:url(#aY)"/><path d="m142.845 137.951 1.737 10.582-1.796-6.019z" style="fill:url(#aZ)"/><path d="m190.313 132.342-11.576 5.158-6.778 14.299z" style="fill:url(#ba)"/><path d="m172.084 152.337 12.533 19.296 2.156-35.009z" style="fill:url(#bb)"/><path d="m172.408 153.558 11.421 17.603-7.08-7.403z" style="fill:url(#bc)"/><path d="m184.918 171.882.603-9.361 7.256 12.746z" style="fill:url(#bd)"/><path d="m193.196 175.348-3.694-6.417 8.051 6.947z" style="fill:url(#be)"/><path d="m189.62 133.503-2.458 2.752-.236 3.209z" style="fill:url(#bf)"/><path d="m186.882 140.244-1.31 21.563 10.906 6.314z" style="fill:url(#bg)"/><path d="m187.883 138.146-.802 1.715.765 2.31z" style="fill:url(#bh)"/><path d="m191.062 151.281 5.887 17.015 6.741 1.943z" style="fill:url(#bi)"/><path d="m193.902 154.813 9.854 5.225.5 10.303z" style="fill:url(#bj)"/><path d="m260.253 56.007 4.621 11.215 1.796-1.177z" style="fill:url(#bk)"/><path d="m260.547 57.596 3.798 9.244-2.929-4.151z" style="fill:url(#bl)"/><path d="m265.021 67.554 1.84-1.237.957 7.897z" style="fill:url(#bm)"/><path d="m267.303 67.252 1.008 8.581.551-5.196z" style="fill:url(#bn)"/><path d="m268.563 76.889.619-5.615 3.757 11.028z" style="fill:url(#bo)"/><path d="m268.751 77.79 4.349 5.328-3.429 1.605z" style="fill:url(#bp)"/><path d="m269.7 85.069 3.496-1.671-3.841 8.638z" style="fill:url(#bq)"/><path d="m269.094 93.399 4.239-9.413 1.663 20.117z" style="fill:url(#br)"/><path d="M268.968 94.083 275 104.916l-6.667 27.715z" style="fill:url(#bs)"/><path d="m268.586 95.396-.672 38.199-19.812 24.168z" style="fill:url(#bt)"/><path d="m274.783 107.653-5.608 23.071 3.65-11.363z" style="fill:url(#bu)"/><path d="M267.144 135.198 249.4 156.871l9.708-9.442z" style="fill:url(#bv)"/><path d="m264.834 105.349-17.574 53.133-11.569 6.829z" style="fill:url(#bw)"/><path d="m204.075 159.976.449 10.392 18.612-.656z" style="fill:url(#bx)"/><path d="m251.689 131.812-16.617 33.941-11.422 3.886z" style="fill:url(#by)"/><path d="m238.192 104.7 9.773 7.241-5.299 5.829z" style="fill:url(#bz)"/><path d="m242.725 118.241 5.457-6.016-5.46 14.148z" style="fill:url(#bA)"/><path d="m248.436 112.614 3.426 18.454-9.516-2.745z" style="fill:url(#bB)"/><path d="m248.911 113.453 3.091 16.426-.589-9.317z" style="fill:url(#bC)"/><path d="m251.604 131.387-28.281 37.863-19.348-9.648z" style="fill:url(#bD)"/><path d="m222.816 147.665 6.829-8.066 5.829.825z" style="fill:url(#bE)"/><path d="m242.185 128.707-6.358 11.216 15.19-8.625z" style="fill:url(#bF)"/><path d="m235.389 140.063-5.593-.773 3.393-9.427z" style="fill:url(#bG)"/><path d="m240.931 130.009-5.255 9.273-2.31-10.318z" style="fill:url(#bH)"/><path d="m240.931 129.671-7.521-.993-.67-9.781z" style="fill:url(#bI)"/><path d="m240.849 128.905-8.316-10.789-4.18-9.449z" style="fill:url(#bJ)"/><path d="m240.687 127.801-11.745-18.929 7.963 7.345z" style="fill:url(#bK)"/><path d="m221.63 148.399-18.251 10.892-9.538-7.712z" style="fill:url(#bL)"/><path d="m207.81 149.643-14.277 1.501-3.298-7.521z" style="fill:url(#bM)"/><path d="m202.555 147.332-12.305-4.239.589-7.33z" style="fill:url(#bN)"/><path d="m195.799 140.105-4.842-4.71 1.472-2.723z" style="fill:url(#bO)"/><path d="m194.585 136.712-1.972-4.313 1.457-1.177z" style="fill:url(#bP)"/></svg>